M48
INCH,TZ
T01C.01575
;LEADER: 12 
;HEADER: 
;CODE  : ASCII 
;FILE  : proiect_osc_triunghiular-1-2.drl for  ... layers TOP and BOTTOM
;DESIGN: proiect_osc_triunghiular.brd
;T01 Holesize 1. = 15.750000 Tolerance = +0.000000/-0.000000 PLATED MILS Quantity = 37
%
G90
T01
X9826Y145508
Y133393
X42138Y24182
X40315Y52119
X22332Y48624
Y39637
X6755Y93233
X43702Y77551
X39233Y72316
X16691Y80029
X64739Y10544
X37895Y90324
X31460Y42638
X37961Y36137
X6721Y25306
X65651Y19262
X94159Y54399
X130388Y46642
X64676Y98418
X88057Y106013
X79306Y107236
X68474Y77646
X81452Y78835
X82146Y100201
X95684Y79595
X137657Y65267
X80838Y58005
Y42836
X126157Y98934
X106715Y89172
X55216Y24778
X54653Y128386
X82708Y138474
X123292Y134413
X113513Y134607
X56054Y119042
X149796Y144467
M30
