G04 ================== begin FILE IDENTIFICATION RECORD ==================*
G04 Layout Name:  proiect_osc_triunghiular.brd*
G04 Film Name:    FAB*
G04 File Format:  Gerber RS274X*
G04 File Origin:  Cadence Allegro 17.4-S028*
G04 Origin Date:  Sat Dec 10 20:25:24 2022*
G04 *
G04 Layer:  MANUFACTURING/NCDRILL_LEGEND*
G04 Layer:  MANUFACTURING/NCDRILL_FIGURE*
G04 Layer:  MANUFACTURING/XSECTION_CHART*
G04 Layer:  MANUFACTURING/NCLEGEND-1-2*
G04 Layer:  DRAWING FORMAT/OUTLINE*
G04 *
G04 Offset:    (0.00 0.00)*
G04 Mirror:    No*
G04 Mode:      Positive*
G04 Rotation:  0*
G04 FullContactRelief:  No*
G04 UndefLineWidth:     4.00*
G04 ================== end FILE IDENTIFICATION RECORD ====================*
%FSLAX25Y25*MOIN*%
%IR0*IPPOS*OFA0.00000B0.00000*MIA0B0*SFA1.00000B1.00000*%
%AMMACRO10*
1,1,.004,.007875,0.0*
20,1,.004,.007875,0.0,.007755,-.001367,0.0*
1,1,.004,.007755,-.001367*
20,1,.004,.007755,-.001367,.0074,-.002693,0.0*
1,1,.004,.0074,-.002693*
20,1,.004,.0074,-.002693,.00682,-.003937,0.0*
1,1,.004,.00682,-.003937*
20,1,.004,.00682,-.003937,.006033,-.005062,0.0*
1,1,.004,.006033,-.005062*
20,1,.004,.006033,-.005062,.005062,-.006033,0.0*
1,1,.004,.005062,-.006033*
20,1,.004,.005062,-.006033,.003938,-.00682,0.0*
1,1,.004,.003938,-.00682*
20,1,.004,.003938,-.00682,.002693,-.0074,0.0*
1,1,.004,.002693,-.0074*
20,1,.004,.002693,-.0074,.001367,-.007755,0.0*
1,1,.004,.001367,-.007755*
20,1,.004,.001367,-.007755,0.0,-.007875,0.0*
1,1,.004,0.0,-.007875*
20,1,.004,0.0,-.007875,-.001367,-.007755,0.0*
1,1,.004,-.001367,-.007755*
20,1,.004,-.001367,-.007755,-.002693,-.0074,0.0*
1,1,.004,-.002693,-.0074*
20,1,.004,-.002693,-.0074,-.003937,-.00682,0.0*
1,1,.004,-.003937,-.00682*
20,1,.004,-.003937,-.00682,-.005062,-.006033,0.0*
1,1,.004,-.005062,-.006033*
20,1,.004,-.005062,-.006033,-.006033,-.005062,0.0*
1,1,.004,-.006033,-.005062*
20,1,.004,-.006033,-.005062,-.00682,-.003938,0.0*
1,1,.004,-.00682,-.003938*
20,1,.004,-.00682,-.003938,-.0074,-.002693,0.0*
1,1,.004,-.0074,-.002693*
20,1,.004,-.0074,-.002693,-.007755,-.001367,0.0*
1,1,.004,-.007755,-.001367*
20,1,.004,-.007755,-.001367,-.007875,0.0,0.0*
1,1,.004,-.007875,0.0*
20,1,.004,-.007875,0.0,-.007755,.001367,0.0*
1,1,.004,-.007755,.001367*
20,1,.004,-.007755,.001367,-.0074,.002693,0.0*
1,1,.004,-.0074,.002693*
20,1,.004,-.0074,.002693,-.00682,.003937,0.0*
1,1,.004,-.00682,.003937*
20,1,.004,-.00682,.003937,-.006033,.005062,0.0*
1,1,.004,-.006033,.005062*
20,1,.004,-.006033,.005062,-.005062,.006033,0.0*
1,1,.004,-.005062,.006033*
20,1,.004,-.005062,.006033,-.003938,.00682,0.0*
1,1,.004,-.003938,.00682*
20,1,.004,-.003938,.00682,-.002693,.0074,0.0*
1,1,.004,-.002693,.0074*
20,1,.004,-.002693,.0074,-.001367,.007755,0.0*
1,1,.004,-.001367,.007755*
20,1,.004,-.001367,.007755,0.0,.007875,0.0*
1,1,.004,0.0,.007875*
20,1,.004,0.0,.007875,.001367,.007755,0.0*
1,1,.004,.001367,.007755*
20,1,.004,.001367,.007755,.002693,.0074,0.0*
1,1,.004,.002693,.0074*
20,1,.004,.002693,.0074,.003937,.00682,0.0*
1,1,.004,.003937,.00682*
20,1,.004,.003937,.00682,.005062,.006033,0.0*
1,1,.004,.005062,.006033*
20,1,.004,.005062,.006033,.006033,.005062,0.0*
1,1,.004,.006033,.005062*
20,1,.004,.006033,.005062,.00682,.003938,0.0*
1,1,.004,.00682,.003938*
20,1,.004,.00682,.003938,.0074,.002693,0.0*
1,1,.004,.0074,.002693*
20,1,.004,.0074,.002693,.007755,.001367,0.0*
1,1,.004,.007755,.001367*
20,1,.004,.007755,.001367,.007875,0.0,0.0*
1,1,.004,.007875,0.0*
1,1,.004,-.0017,-.00131*
20,1,.004,-.0017,-.00131,.00171,-.00131,0.0*
1,1,.004,.00171,-.00131*
%
%ADD10MACRO10*%
%ADD11C,.004*%
G75*
%LPD*%
G75*
G36*
G01X282445Y229581D02*
Y209812D01*
X284945D01*
Y49004D01*
X282445D01*
Y29235D01*
X297445D01*
Y49004D01*
X294945D01*
Y209812D01*
X297445D01*
Y229581D01*
X282445D01*
G37*
G36*
G01X262445Y29236D02*
Y49005D01*
X322445D01*
Y29236D01*
X262445D01*
G37*
G36*
G01Y209812D02*
Y229581D01*
X322445D01*
Y209812D01*
X262445D01*
G37*
G54D10*
X6721Y25306D03*
X6755Y93233D03*
X9826Y133393D03*
Y145508D03*
X37961Y36137D03*
X22332Y39637D03*
X42138Y24182D03*
X31460Y42638D03*
X22332Y48624D03*
X40315Y52119D03*
X37895Y90324D03*
X16691Y80029D03*
X39233Y72316D03*
X43702Y77551D03*
X45000Y-104130D03*
X55216Y24778D03*
X64739Y10544D03*
X65651Y19262D03*
X68474Y77646D03*
X64676Y98418D03*
X56054Y119042D03*
X54653Y128386D03*
X80838Y42836D03*
Y58005D03*
X94159Y54399D03*
X95684Y79595D03*
X81452Y78835D03*
X82146Y100201D03*
X79306Y107236D03*
X88057Y106013D03*
X82708Y138474D03*
X130388Y46642D03*
X106715Y89172D03*
X126157Y98934D03*
X113513Y134607D03*
X123292Y134413D03*
X137657Y65267D03*
G54D11*
G01X50Y-116630D02*
Y-16630D01*
X496050D01*
Y-116630D01*
X50D01*
G01X11055Y-85380D02*
Y-72880D01*
X16945D01*
G01X14775Y-78922D02*
X11055D01*
G01X24540Y-72880D02*
X28260D01*
G01X26400D02*
Y-85380D01*
G01X24540D02*
X28260D01*
G01X39730Y-79130D02*
X42830D01*
Y-82880D01*
X41900Y-84130D01*
X40815Y-84963D01*
X39265Y-85380D01*
X37715Y-84963D01*
X36630Y-84130D01*
X35700Y-82880D01*
X35080Y-81422D01*
X34770Y-79755D01*
Y-78297D01*
X35080Y-77047D01*
X35700Y-75588D01*
X36630Y-74338D01*
X37560Y-73505D01*
X38800Y-72880D01*
X39885D01*
X41125Y-73297D01*
X42055Y-74130D01*
G01X47790Y-72880D02*
Y-81838D01*
X48410Y-83714D01*
X49650Y-84963D01*
X51200Y-85380D01*
X52750Y-84963D01*
X53990Y-83714D01*
X54610Y-81838D01*
Y-72880D01*
G01X60500Y-85380D02*
Y-72880D01*
X64375D01*
X65615Y-73505D01*
X66390Y-74338D01*
X66700Y-76005D01*
X66390Y-77672D01*
X65460Y-78713D01*
X64375Y-79338D01*
X60500D01*
G01X64375D02*
X66700Y-85380D01*
G01X79100D02*
X72900D01*
Y-72880D01*
X79100D01*
G01X76620Y-78922D02*
X72900D01*
G01X50Y-91630D02*
X496050D01*
G01X50Y-66630D02*
X496050D01*
G01X50Y-41630D02*
X496050D01*
G01X89950Y-66630D02*
Y-116630D01*
G01X89640Y-35380D02*
Y-22880D01*
X92740D01*
X93980Y-23505D01*
X94910Y-24338D01*
X95685Y-25588D01*
X96305Y-27047D01*
X96460Y-29130D01*
X96305Y-31213D01*
X95685Y-32672D01*
X94910Y-33922D01*
X93980Y-34755D01*
X92740Y-35380D01*
X89640D01*
G01X102350D02*
Y-22880D01*
X106225D01*
X107465Y-23505D01*
X108240Y-24338D01*
X108550Y-26005D01*
X108240Y-27672D01*
X107310Y-28713D01*
X106225Y-29338D01*
X102350D01*
G01X106225D02*
X108550Y-35380D01*
G01X115990Y-22880D02*
X119710D01*
G01X117850D02*
Y-35380D01*
G01X115990D02*
X119710D01*
G01X127150Y-22880D02*
Y-35380D01*
X133350D01*
G01X139550Y-22880D02*
Y-35380D01*
X145750D01*
G01X170860Y-23922D02*
X169930Y-23297D01*
X168845Y-22880D01*
X167605D01*
X166210Y-23505D01*
X165125Y-24547D01*
X164350Y-25797D01*
X163730Y-27880D01*
X163575Y-29755D01*
X163885Y-31630D01*
X164350Y-32880D01*
X165280Y-34130D01*
X166365Y-34963D01*
X167450Y-35380D01*
X168535D01*
X169620Y-34963D01*
X170550Y-34339D01*
X171325Y-33505D01*
G01X176595Y-35380D02*
Y-22880D01*
G01X183105D02*
Y-35380D01*
G01Y-29130D02*
X176595D01*
G01X188375Y-35380D02*
X192250Y-22880D01*
X196125Y-35380D01*
G01X194730Y-31005D02*
X189770D01*
G01X201550Y-35380D02*
Y-22880D01*
X205425D01*
X206665Y-23505D01*
X207440Y-24338D01*
X207750Y-26005D01*
X207440Y-27672D01*
X206510Y-28713D01*
X205425Y-29338D01*
X201550D01*
G01X205425D02*
X207750Y-35380D01*
G01X217050Y-22880D02*
Y-35380D01*
G01X213485Y-22880D02*
X220615D01*
G01X229450Y-35797D02*
X229140Y-35588D01*
Y-35172D01*
X229450Y-34963D01*
X229760Y-35172D01*
Y-35588D01*
X229450Y-35797D01*
G01Y-30172D02*
X229140Y-29963D01*
Y-29547D01*
X229450Y-29338D01*
X229760Y-29547D01*
Y-29963D01*
X229450Y-30172D01*
G01X254250Y-22880D02*
Y-35380D01*
G01X250685Y-22880D02*
X257815D01*
G01X266650Y-35380D02*
X265410Y-35172D01*
X264325Y-34339D01*
X263395Y-33088D01*
X262775Y-31630D01*
X262465Y-29963D01*
Y-28297D01*
X262775Y-26630D01*
X263395Y-25172D01*
X264325Y-23922D01*
X265410Y-23088D01*
X266650Y-22880D01*
X267890Y-23088D01*
X268975Y-23922D01*
X269905Y-25172D01*
X270525Y-26630D01*
X270835Y-28297D01*
Y-29963D01*
X270525Y-31630D01*
X269905Y-33088D01*
X268975Y-34339D01*
X267890Y-35172D01*
X266650Y-35380D01*
G01X275950D02*
Y-22880D01*
X279670D01*
X280910Y-23505D01*
X281840Y-24963D01*
X282150Y-26630D01*
X281840Y-28297D01*
X281065Y-29547D01*
X279670Y-30172D01*
X275950D01*
G01X303850Y-22880D02*
Y-35380D01*
G01X301680Y-27047D02*
X306020D01*
G01X316250Y-35380D02*
X315320Y-35172D01*
X314390Y-34339D01*
X313770Y-32880D01*
X313460Y-31213D01*
X313770Y-29547D01*
X314390Y-28088D01*
X315320Y-27255D01*
X316250Y-27047D01*
X317180Y-27255D01*
X318110Y-28088D01*
X318730Y-29547D01*
X318885Y-31213D01*
X318730Y-32880D01*
X318110Y-34339D01*
X317180Y-35172D01*
X316250Y-35380D01*
G01X342290Y-28713D02*
X342910Y-28088D01*
X343375Y-27047D01*
X343685Y-25588D01*
X343375Y-24338D01*
X342755Y-23505D01*
X341670Y-22880D01*
X337485D01*
Y-35380D01*
X342600D01*
X343685Y-34547D01*
X344305Y-33297D01*
X344615Y-31838D01*
X344305Y-30380D01*
X343375Y-29130D01*
X342290Y-28713D01*
X337485D01*
G01X353450Y-35380D02*
X352210Y-35172D01*
X351125Y-34339D01*
X350195Y-33088D01*
X349575Y-31630D01*
X349265Y-29963D01*
Y-28297D01*
X349575Y-26630D01*
X350195Y-25172D01*
X351125Y-23922D01*
X352210Y-23088D01*
X353450Y-22880D01*
X354690Y-23088D01*
X355775Y-23922D01*
X356705Y-25172D01*
X357325Y-26630D01*
X357635Y-28297D01*
Y-29963D01*
X357325Y-31630D01*
X356705Y-33088D01*
X355775Y-34339D01*
X354690Y-35172D01*
X353450Y-35380D01*
G01X365850Y-22880D02*
Y-35380D01*
G01X362285Y-22880D02*
X369415D01*
G01X378250D02*
Y-35380D01*
G01X374685Y-22880D02*
X381815D01*
G01X390650Y-35380D02*
X389410Y-35172D01*
X388325Y-34339D01*
X387395Y-33088D01*
X386775Y-31630D01*
X386465Y-29963D01*
Y-28297D01*
X386775Y-26630D01*
X387395Y-25172D01*
X388325Y-23922D01*
X389410Y-23088D01*
X390650Y-22880D01*
X391890Y-23088D01*
X392975Y-23922D01*
X393905Y-25172D01*
X394525Y-26630D01*
X394835Y-28297D01*
Y-29963D01*
X394525Y-31630D01*
X393905Y-33088D01*
X392975Y-34339D01*
X391890Y-35172D01*
X390650Y-35380D01*
G01X399020D02*
Y-22880D01*
X403050Y-33297D01*
X407080Y-22880D01*
Y-35380D01*
G01X113355Y-85380D02*
Y-72880D01*
X119245D01*
G01X117075Y-78922D02*
X113355D01*
G01X126840Y-72880D02*
X130560D01*
G01X128700D02*
Y-85380D01*
G01X126840D02*
X130560D01*
G01X137535D02*
Y-72880D01*
X144665Y-85380D01*
Y-72880D01*
G01X151640D02*
X155360D01*
G01X153500D02*
Y-85380D01*
G01X151640D02*
X155360D01*
G01X162645Y-83714D02*
X163885Y-84755D01*
X165280Y-85380D01*
X166520D01*
X167760Y-84755D01*
X168690Y-83714D01*
X169155Y-82255D01*
X168845Y-80797D01*
X168070Y-79547D01*
X166675Y-78713D01*
X164815Y-78297D01*
X163730Y-77463D01*
X163265Y-76005D01*
X163575Y-74547D01*
X164350Y-73505D01*
X165435Y-72880D01*
X166520D01*
X167605Y-73297D01*
X168535Y-74338D01*
G01X175045Y-85380D02*
Y-72880D01*
G01X181555D02*
Y-85380D01*
G01Y-79130D02*
X175045D01*
G01X193800Y-85380D02*
X187600D01*
Y-72880D01*
X193800D01*
G01X191320Y-78922D02*
X187600D01*
G01X199690Y-85380D02*
Y-72880D01*
X202790D01*
X204030Y-73505D01*
X204960Y-74338D01*
X205735Y-75588D01*
X206355Y-77047D01*
X206510Y-79130D01*
X206355Y-81213D01*
X205735Y-82672D01*
X204960Y-83922D01*
X204030Y-84755D01*
X202790Y-85380D01*
X199690D01*
G01X210850Y-89547D02*
X220150D01*
G01X224645Y-83714D02*
X225885Y-84755D01*
X227280Y-85380D01*
X228520D01*
X229760Y-84755D01*
X230690Y-83714D01*
X231155Y-82255D01*
X230845Y-80797D01*
X230070Y-79547D01*
X228675Y-78713D01*
X226815Y-78297D01*
X225730Y-77463D01*
X225265Y-76005D01*
X225575Y-74547D01*
X226350Y-73505D01*
X227435Y-72880D01*
X228520D01*
X229605Y-73297D01*
X230535Y-74338D01*
G01X238440Y-72880D02*
X242160D01*
G01X240300D02*
Y-85380D01*
G01X238440D02*
X242160D01*
G01X249755Y-72880D02*
X255645D01*
X249755Y-85380D01*
X255645D01*
G01X268200D02*
X262000D01*
Y-72880D01*
X268200D01*
G01X265720Y-78922D02*
X262000D01*
G01X120175Y-60380D02*
X124050Y-47880D01*
X127925Y-60380D01*
G01X126530Y-56005D02*
X121570D01*
G01X133350Y-47880D02*
Y-60380D01*
X139550D01*
G01X145750Y-47880D02*
Y-60380D01*
X151950D01*
G01X170240Y-47880D02*
Y-56838D01*
X170860Y-58714D01*
X172100Y-59963D01*
X173650Y-60380D01*
X175200Y-59963D01*
X176440Y-58714D01*
X177060Y-56838D01*
Y-47880D01*
G01X182485Y-60380D02*
Y-47880D01*
X189615Y-60380D01*
Y-47880D01*
G01X196590D02*
X200310D01*
G01X198450D02*
Y-60380D01*
G01X196590D02*
X200310D01*
G01X210850Y-47880D02*
Y-60380D01*
G01X207285Y-47880D02*
X214415D01*
G01X219995Y-58714D02*
X221235Y-59755D01*
X222630Y-60380D01*
X223870D01*
X225110Y-59755D01*
X226040Y-58714D01*
X226505Y-57255D01*
X226195Y-55797D01*
X225420Y-54547D01*
X224025Y-53713D01*
X222165Y-53297D01*
X221080Y-52463D01*
X220615Y-51005D01*
X220925Y-49547D01*
X221700Y-48505D01*
X222785Y-47880D01*
X223870D01*
X224955Y-48297D01*
X225885Y-49338D01*
G01X244175Y-60380D02*
X248050Y-47880D01*
X251925Y-60380D01*
G01X250530Y-56005D02*
X245570D01*
G01X257350Y-60380D02*
Y-47880D01*
X261225D01*
X262465Y-48505D01*
X263240Y-49338D01*
X263550Y-51005D01*
X263240Y-52672D01*
X262310Y-53713D01*
X261225Y-54338D01*
X257350D01*
G01X261225D02*
X263550Y-60380D01*
G01X275950D02*
X269750D01*
Y-47880D01*
X275950D01*
G01X273470Y-53922D02*
X269750D01*
G01X295790Y-47880D02*
X299510D01*
G01X297650D02*
Y-60380D01*
G01X295790D02*
X299510D01*
G01X306485D02*
Y-47880D01*
X313615Y-60380D01*
Y-47880D01*
G01X330820Y-60380D02*
Y-47880D01*
X334850Y-58297D01*
X338880Y-47880D01*
Y-60380D01*
G01X345390Y-47880D02*
X349110D01*
G01X347250D02*
Y-60380D01*
G01X345390D02*
X349110D01*
G01X356550Y-47880D02*
Y-60380D01*
X362750D01*
G01X368795Y-58714D02*
X370035Y-59755D01*
X371430Y-60380D01*
X372670D01*
X373910Y-59755D01*
X374840Y-58714D01*
X375305Y-57255D01*
X374995Y-55797D01*
X374220Y-54547D01*
X372825Y-53713D01*
X370965Y-53297D01*
X369880Y-52463D01*
X369415Y-51005D01*
X369725Y-49547D01*
X370500Y-48505D01*
X371585Y-47880D01*
X372670D01*
X373755Y-48297D01*
X374685Y-49338D01*
G01X165900Y-110380D02*
Y-97880D01*
X164040Y-100380D01*
G01Y-110380D02*
X167760D01*
G01X174890Y-108505D02*
X175820Y-109547D01*
X176905Y-110172D01*
X178300Y-110380D01*
X179695Y-109963D01*
X180780Y-109130D01*
X181555Y-107672D01*
X181710Y-106005D01*
X181400Y-104338D01*
X180625Y-103297D01*
X179540Y-102463D01*
X178455Y-102255D01*
X177370Y-102463D01*
X175975Y-103297D01*
X176440Y-97880D01*
X180625D01*
G01X190700Y-110797D02*
X190390Y-110588D01*
Y-110172D01*
X190700Y-109963D01*
X191010Y-110172D01*
Y-110588D01*
X190700Y-110797D01*
G01X202790Y-110380D02*
X203100Y-107672D01*
X203565Y-105380D01*
X204185Y-103297D01*
X204960Y-101005D01*
X206200Y-97880D01*
X200000D01*
G01X212090Y-108505D02*
X213020Y-109547D01*
X214105Y-110172D01*
X215500Y-110380D01*
X216895Y-109963D01*
X217980Y-109130D01*
X218755Y-107672D01*
X218910Y-106005D01*
X218600Y-104338D01*
X217825Y-103297D01*
X216740Y-102463D01*
X215655Y-102255D01*
X214570Y-102463D01*
X213175Y-103297D01*
X213640Y-97880D01*
X217825D01*
G01X176983Y6921D02*
Y-1079D01*
G01X174683Y6921D02*
X179283D01*
G01X184983Y-1079D02*
X184183Y-946D01*
X183483Y-412D01*
X182883Y388D01*
X182483Y1321D01*
X182283Y2388D01*
Y3454D01*
X182483Y4521D01*
X182883Y5454D01*
X183483Y6254D01*
X184183Y6788D01*
X184983Y6921D01*
X185783Y6788D01*
X186483Y6254D01*
X187083Y5454D01*
X187483Y4521D01*
X187683Y3454D01*
Y2388D01*
X187483Y1321D01*
X187083Y388D01*
X186483Y-412D01*
X185783Y-946D01*
X184983Y-1079D01*
G01X192983Y6921D02*
Y-1079D01*
G01X190683Y6921D02*
X195283D01*
G01X198483Y-1079D02*
X200983Y6921D01*
X203483Y-1079D01*
G01X202583Y1721D02*
X199383D01*
G01X206983Y6921D02*
Y-1079D01*
X210983D01*
G01X224983Y6921D02*
Y-1079D01*
G01X222683Y6921D02*
X227283D01*
G01X230883Y-1079D02*
Y6921D01*
G01X235083D02*
Y-1079D01*
G01Y2921D02*
X230883D01*
G01X239783Y6921D02*
X242183D01*
G01X240983D02*
Y-1079D01*
G01X239783D02*
X242183D01*
G01X251183Y6254D02*
X250583Y6654D01*
X249883Y6921D01*
X249083D01*
X248183Y6521D01*
X247483Y5854D01*
X246983Y5054D01*
X246583Y3721D01*
X246483Y2521D01*
X246683Y1321D01*
X246983Y521D01*
X247583Y-279D01*
X248283Y-812D01*
X248983Y-1079D01*
X249683D01*
X250383Y-812D01*
X250983Y-412D01*
X251483Y121D01*
G01X254783Y-1079D02*
Y6921D01*
G01X258583D02*
X254783Y1987D01*
G01X259183Y-1079D02*
X256483Y4254D01*
G01X262683Y-1079D02*
Y6921D01*
X267283Y-1079D01*
Y6921D01*
G01X274983Y-1079D02*
X270983D01*
Y6921D01*
X274983D01*
G01X273383Y3054D02*
X270983D01*
G01X278883Y-13D02*
X279683Y-679D01*
X280583Y-1079D01*
X281383D01*
X282183Y-679D01*
X282783Y-13D01*
X283083Y921D01*
X282883Y1854D01*
X282383Y2654D01*
X281483Y3188D01*
X280283Y3454D01*
X279583Y3988D01*
X279283Y4921D01*
X279483Y5854D01*
X279983Y6521D01*
X280683Y6921D01*
X281383D01*
X282083Y6654D01*
X282683Y5988D01*
G01X286883Y-13D02*
X287683Y-679D01*
X288583Y-1079D01*
X289383D01*
X290183Y-679D01*
X290783Y-13D01*
X291083Y921D01*
X290883Y1854D01*
X290383Y2654D01*
X289483Y3188D01*
X288283Y3454D01*
X287583Y3988D01*
X287283Y4921D01*
X287483Y5854D01*
X287983Y6521D01*
X288683Y6921D01*
X289383D01*
X290083Y6654D01*
X290683Y5988D01*
G01X302783Y121D02*
X303383Y-546D01*
X304083Y-946D01*
X304983Y-1079D01*
X305883Y-812D01*
X306583Y-279D01*
X307083Y654D01*
X307183Y1721D01*
X306983Y2788D01*
X306483Y3454D01*
X305783Y3988D01*
X305083Y4121D01*
X304383Y3988D01*
X303483Y3454D01*
X303783Y6921D01*
X306483D01*
G01X311283Y-146D02*
X311983Y-812D01*
X312783Y-1079D01*
X313583Y-812D01*
X314283Y-13D01*
X314783Y1188D01*
X314983Y2388D01*
Y3854D01*
X314783Y5054D01*
X314283Y6121D01*
X313683Y6654D01*
X312983Y6921D01*
X312183Y6654D01*
X311583Y6121D01*
X311183Y5321D01*
X310983Y4254D01*
X311183Y3321D01*
X311683Y2388D01*
X312283Y1854D01*
X312983Y1721D01*
X313783Y1987D01*
X314383Y2654D01*
X314983Y3854D01*
G01X320983Y-1346D02*
X320783Y-1212D01*
Y-946D01*
X320983Y-812D01*
X321183Y-946D01*
Y-1212D01*
X320983Y-1346D01*
G01X328983Y6921D02*
X328183Y6654D01*
X327583Y5988D01*
X327183Y5188D01*
X326883Y4121D01*
X326783Y2921D01*
X326883Y1721D01*
X327183Y654D01*
X327583Y-146D01*
X328183Y-812D01*
X328983Y-1079D01*
X329783Y-812D01*
X330383Y-146D01*
X330783Y654D01*
X331083Y1721D01*
X331183Y2921D01*
X331083Y4121D01*
X330783Y5188D01*
X330383Y5988D01*
X329783Y6654D01*
X328983Y6921D01*
G01X334783Y121D02*
X335383Y-546D01*
X336083Y-946D01*
X336983Y-1079D01*
X337883Y-812D01*
X338583Y-279D01*
X339083Y654D01*
X339183Y1721D01*
X338983Y2788D01*
X338483Y3454D01*
X337783Y3988D01*
X337083Y4121D01*
X336383Y3988D01*
X335483Y3454D01*
X335783Y6921D01*
X338483D01*
G01X346183Y-1079D02*
Y6921D01*
X342483Y1188D01*
X347483D01*
G01X358383Y-1079D02*
Y6921D01*
X360983Y254D01*
X363583Y6921D01*
Y-1079D01*
G01X367783Y6921D02*
X370183D01*
G01X368983D02*
Y-1079D01*
G01X367783D02*
X370183D01*
G01X374983Y6921D02*
Y-1079D01*
X378983D01*
G01X192666Y16835D02*
Y24835D01*
X194666D01*
X195466Y24435D01*
X196066Y23902D01*
X196566Y23102D01*
X196966Y22168D01*
X197066Y20835D01*
X196966Y19502D01*
X196566Y18568D01*
X196066Y17768D01*
X195466Y17235D01*
X194666Y16835D01*
X192666D01*
G01X204866D02*
X200866D01*
Y24835D01*
X204866D01*
G01X203266Y20968D02*
X200866D01*
G01X208766Y17901D02*
X209566Y17235D01*
X210466Y16835D01*
X211266D01*
X212066Y17235D01*
X212666Y17901D01*
X212966Y18835D01*
X212766Y19768D01*
X212266Y20568D01*
X211366Y21102D01*
X210166Y21368D01*
X209466Y21902D01*
X209166Y22835D01*
X209366Y23768D01*
X209866Y24435D01*
X210566Y24835D01*
X211266D01*
X211966Y24568D01*
X212566Y23902D01*
G01X217666Y24835D02*
X220066D01*
G01X218866D02*
Y16835D01*
G01X217666D02*
X220066D01*
G01X227466Y20835D02*
X229466D01*
Y18435D01*
X228866Y17635D01*
X228166Y17102D01*
X227166Y16835D01*
X226166Y17102D01*
X225466Y17635D01*
X224866Y18435D01*
X224466Y19368D01*
X224266Y20435D01*
Y21368D01*
X224466Y22168D01*
X224866Y23102D01*
X225466Y23902D01*
X226066Y24435D01*
X226866Y24835D01*
X227566D01*
X228366Y24568D01*
X228966Y24035D01*
G01X232566Y16835D02*
Y24835D01*
X237166Y16835D01*
Y24835D01*
G01X253066Y24168D02*
X252466Y24568D01*
X251766Y24835D01*
X250966D01*
X250066Y24435D01*
X249366Y23768D01*
X248866Y22968D01*
X248466Y21635D01*
X248366Y20435D01*
X248566Y19235D01*
X248866Y18435D01*
X249466Y17635D01*
X250166Y17102D01*
X250866Y16835D01*
X251566D01*
X252266Y17102D01*
X252866Y17502D01*
X253366Y18035D01*
G01X256866Y16835D02*
Y24835D01*
X259366D01*
X260166Y24435D01*
X260666Y23902D01*
X260866Y22835D01*
X260666Y21768D01*
X260066Y21102D01*
X259366Y20702D01*
X256866D01*
G01X259366D02*
X260866Y16835D01*
G01X266866D02*
X266066Y16968D01*
X265366Y17502D01*
X264766Y18302D01*
X264366Y19235D01*
X264166Y20302D01*
Y21368D01*
X264366Y22435D01*
X264766Y23368D01*
X265366Y24168D01*
X266066Y24702D01*
X266866Y24835D01*
X267666Y24702D01*
X268366Y24168D01*
X268966Y23368D01*
X269366Y22435D01*
X269566Y21368D01*
Y20302D01*
X269366Y19235D01*
X268966Y18302D01*
X268366Y17502D01*
X267666Y16968D01*
X266866Y16835D01*
G01X272766Y17901D02*
X273566Y17235D01*
X274466Y16835D01*
X275266D01*
X276066Y17235D01*
X276666Y17901D01*
X276966Y18835D01*
X276766Y19768D01*
X276266Y20568D01*
X275366Y21102D01*
X274166Y21368D01*
X273466Y21902D01*
X273166Y22835D01*
X273366Y23768D01*
X273866Y24435D01*
X274566Y24835D01*
X275266D01*
X275966Y24568D01*
X276566Y23902D01*
G01X280766Y17901D02*
X281566Y17235D01*
X282466Y16835D01*
X283266D01*
X284066Y17235D01*
X284666Y17901D01*
X284966Y18835D01*
X284766Y19768D01*
X284266Y20568D01*
X283366Y21102D01*
X282166Y21368D01*
X281466Y21902D01*
X281166Y22835D01*
X281366Y23768D01*
X281866Y24435D01*
X282566Y24835D01*
X283266D01*
X283966Y24568D01*
X284566Y23902D01*
G01X296766Y17901D02*
X297566Y17235D01*
X298466Y16835D01*
X299266D01*
X300066Y17235D01*
X300666Y17901D01*
X300966Y18835D01*
X300766Y19768D01*
X300266Y20568D01*
X299366Y21102D01*
X298166Y21368D01*
X297466Y21902D01*
X297166Y22835D01*
X297366Y23768D01*
X297866Y24435D01*
X298566Y24835D01*
X299266D01*
X299966Y24568D01*
X300566Y23902D01*
G01X308866Y16835D02*
X304866D01*
Y24835D01*
X308866D01*
G01X307266Y20968D02*
X304866D01*
G01X317066Y24168D02*
X316466Y24568D01*
X315766Y24835D01*
X314966D01*
X314066Y24435D01*
X313366Y23768D01*
X312866Y22968D01*
X312466Y21635D01*
X312366Y20435D01*
X312566Y19235D01*
X312866Y18435D01*
X313466Y17635D01*
X314166Y17102D01*
X314866Y16835D01*
X315566D01*
X316266Y17102D01*
X316866Y17502D01*
X317366Y18035D01*
G01X322866Y24835D02*
Y16835D01*
G01X320566Y24835D02*
X325166D01*
G01X329666D02*
X332066D01*
G01X330866D02*
Y16835D01*
G01X329666D02*
X332066D01*
G01X338866D02*
X338066Y16968D01*
X337366Y17502D01*
X336766Y18302D01*
X336366Y19235D01*
X336166Y20302D01*
Y21368D01*
X336366Y22435D01*
X336766Y23368D01*
X337366Y24168D01*
X338066Y24702D01*
X338866Y24835D01*
X339666Y24702D01*
X340366Y24168D01*
X340966Y23368D01*
X341366Y22435D01*
X341566Y21368D01*
Y20302D01*
X341366Y19235D01*
X340966Y18302D01*
X340366Y17502D01*
X339666Y16968D01*
X338866Y16835D01*
G01X344566D02*
Y24835D01*
X349166Y16835D01*
Y24835D01*
G01X365066Y24168D02*
X364466Y24568D01*
X363766Y24835D01*
X362966D01*
X362066Y24435D01*
X361366Y23768D01*
X360866Y22968D01*
X360466Y21635D01*
X360366Y20435D01*
X360566Y19235D01*
X360866Y18435D01*
X361466Y17635D01*
X362166Y17102D01*
X362866Y16835D01*
X363566D01*
X364266Y17102D01*
X364866Y17502D01*
X365366Y18035D01*
G01X368766Y16835D02*
Y24835D01*
G01X372966D02*
Y16835D01*
G01Y20835D02*
X368766D01*
G01X376366Y16835D02*
X378866Y24835D01*
X381366Y16835D01*
G01X380466Y19635D02*
X377266D01*
G01X384866Y16835D02*
Y24835D01*
X387366D01*
X388166Y24435D01*
X388666Y23902D01*
X388866Y22835D01*
X388666Y21768D01*
X388066Y21102D01*
X387366Y20702D01*
X384866D01*
G01X387366D02*
X388866Y16835D01*
G01X394866Y24835D02*
Y16835D01*
G01X392566Y24835D02*
X397166D01*
G01X187866Y14168D02*
X193866D01*
G01X195866D02*
X201866D01*
G01X203866D02*
X209866D01*
G01X211866D02*
X217866D01*
G01X219866D02*
X225866D01*
G01X227866D02*
X233866D01*
G01X235866D02*
X241866D01*
G01X243866D02*
X249866D01*
G01X251866D02*
X257866D01*
G01X259866D02*
X265866D01*
G01X267866D02*
X273866D01*
G01X275866D02*
X281866D01*
G01X283866D02*
X289866D01*
G01X291866D02*
X297866D01*
G01X299866D02*
X305866D01*
G01X307866D02*
X313866D01*
G01X315866D02*
X321866D01*
G01X323866D02*
X329866D01*
G01X331866D02*
X337866D01*
G01X339866D02*
X345866D01*
G01X347866D02*
X353866D01*
G01X355866D02*
X361866D01*
G01X363866D02*
X369866D01*
G01X371866D02*
X377866D01*
G01X379866D02*
X385866D01*
G01X387866D02*
X393866D01*
G01X395866D02*
X401866D01*
G01X262445Y49005D02*
Y209812D01*
X322445D01*
Y49005D01*
X262445D01*
G01X289945Y233581D02*
X281945D01*
X283545Y232381D01*
G01X289945D02*
Y234781D01*
G01X287278Y240281D02*
Y242881D01*
G01X283278Y247681D02*
X282478Y248281D01*
X282078Y248981D01*
X281945Y249781D01*
X282212Y250781D01*
X282878Y251481D01*
X283678Y251681D01*
X284479Y251581D01*
X285145Y251181D01*
X286478Y249181D01*
X287412Y248281D01*
X288745Y247681D01*
X289945Y247481D01*
Y251681D01*
G01X291450Y-66630D02*
Y-116630D01*
G01X320900Y-110380D02*
Y-97880D01*
X324620D01*
X325860Y-98505D01*
X326790Y-99963D01*
X327100Y-101630D01*
X326790Y-103297D01*
X326015Y-104547D01*
X324620Y-105172D01*
X320900D01*
G01X333300Y-97880D02*
Y-110380D01*
X339500D01*
G01X344925D02*
X348800Y-97880D01*
X352675Y-110380D01*
G01X351280Y-106005D02*
X346320D01*
G01X361200Y-97880D02*
Y-110380D01*
G01X357635Y-97880D02*
X364765D01*
G01X376700Y-110380D02*
X370500D01*
Y-97880D01*
X376700D01*
G01X374220Y-103922D02*
X370500D01*
G01X382590Y-110380D02*
Y-97880D01*
X385690D01*
X386930Y-98505D01*
X387860Y-99338D01*
X388635Y-100588D01*
X389255Y-102047D01*
X389410Y-104130D01*
X389255Y-106213D01*
X388635Y-107672D01*
X387860Y-108922D01*
X386930Y-109755D01*
X385690Y-110380D01*
X382590D01*
G01X320900Y-85380D02*
Y-72880D01*
X324620D01*
X325860Y-73505D01*
X326790Y-74963D01*
X327100Y-76630D01*
X326790Y-78297D01*
X326015Y-79547D01*
X324620Y-80172D01*
X320900D01*
G01X333300Y-72880D02*
Y-85380D01*
X339500D01*
G01X344925D02*
X348800Y-72880D01*
X352675Y-85380D01*
G01X351280Y-81005D02*
X346320D01*
G01X361200Y-72880D02*
Y-85380D01*
G01X357635Y-72880D02*
X364765D01*
G01X376700Y-85380D02*
X370500D01*
Y-72880D01*
X376700D01*
G01X374220Y-78922D02*
X370500D01*
G01X382590Y-85380D02*
Y-72880D01*
X385690D01*
X386930Y-73505D01*
X387860Y-74338D01*
X388635Y-75588D01*
X389255Y-77047D01*
X389410Y-79130D01*
X389255Y-81213D01*
X388635Y-82672D01*
X387860Y-83922D01*
X386930Y-84755D01*
X385690Y-85380D01*
X382590D01*
G01X331445Y47121D02*
Y39121D01*
X335445D01*
G01X339545Y45788D02*
X340145Y46588D01*
X340845Y46988D01*
X341645Y47121D01*
X342645Y46854D01*
X343345Y46188D01*
X343545Y45388D01*
X343445Y44587D01*
X343045Y43921D01*
X341045Y42588D01*
X340145Y41654D01*
X339545Y40321D01*
X339345Y39121D01*
X343545D01*
G01X358245Y43388D02*
X358645Y43788D01*
X358945Y44454D01*
X359145Y45388D01*
X358945Y46188D01*
X358545Y46721D01*
X357845Y47121D01*
X355145D01*
Y39121D01*
X358445D01*
X359145Y39654D01*
X359545Y40454D01*
X359745Y41388D01*
X359545Y42321D01*
X358945Y43121D01*
X358245Y43388D01*
X355145D01*
G01X365445Y39121D02*
X364645Y39254D01*
X363945Y39788D01*
X363345Y40588D01*
X362945Y41521D01*
X362745Y42588D01*
Y43654D01*
X362945Y44721D01*
X363345Y45654D01*
X363945Y46454D01*
X364645Y46988D01*
X365445Y47121D01*
X366245Y46988D01*
X366945Y46454D01*
X367545Y45654D01*
X367945Y44721D01*
X368145Y43654D01*
Y42588D01*
X367945Y41521D01*
X367545Y40588D01*
X366945Y39788D01*
X366245Y39254D01*
X365445Y39121D01*
G01X373445Y47121D02*
Y39121D01*
G01X371145Y47121D02*
X375745D01*
G01X381445D02*
Y39121D01*
G01X379145Y47121D02*
X383745D01*
G01X389445Y39121D02*
X388645Y39254D01*
X387945Y39788D01*
X387345Y40588D01*
X386945Y41521D01*
X386745Y42588D01*
Y43654D01*
X386945Y44721D01*
X387345Y45654D01*
X387945Y46454D01*
X388645Y46988D01*
X389445Y47121D01*
X390245Y46988D01*
X390945Y46454D01*
X391545Y45654D01*
X391945Y44721D01*
X392145Y43654D01*
Y42588D01*
X391945Y41521D01*
X391545Y40588D01*
X390945Y39788D01*
X390245Y39254D01*
X389445Y39121D01*
G01X394845D02*
Y47121D01*
X397445Y40454D01*
X400045Y47121D01*
Y39121D01*
G01X415645Y46454D02*
X415045Y46854D01*
X414345Y47121D01*
X413545D01*
X412645Y46721D01*
X411945Y46054D01*
X411445Y45254D01*
X411045Y43921D01*
X410945Y42721D01*
X411145Y41521D01*
X411445Y40721D01*
X412045Y39921D01*
X412745Y39388D01*
X413445Y39121D01*
X414145D01*
X414845Y39388D01*
X415445Y39788D01*
X415945Y40321D01*
G01X421445Y39121D02*
X420645Y39254D01*
X419945Y39788D01*
X419345Y40588D01*
X418945Y41521D01*
X418745Y42588D01*
Y43654D01*
X418945Y44721D01*
X419345Y45654D01*
X419945Y46454D01*
X420645Y46988D01*
X421445Y47121D01*
X422245Y46988D01*
X422945Y46454D01*
X423545Y45654D01*
X423945Y44721D01*
X424145Y43654D01*
Y42588D01*
X423945Y41521D01*
X423545Y40588D01*
X422945Y39788D01*
X422245Y39254D01*
X421445Y39121D01*
G01X427145D02*
Y47121D01*
X431745Y39121D01*
Y47121D01*
G01X435245Y39121D02*
Y47121D01*
X437245D01*
X438045Y46721D01*
X438645Y46188D01*
X439145Y45388D01*
X439545Y44454D01*
X439645Y43121D01*
X439545Y41788D01*
X439145Y40854D01*
X438645Y40054D01*
X438045Y39521D01*
X437245Y39121D01*
X435245D01*
G01X443245Y47121D02*
Y41388D01*
X443645Y40187D01*
X444445Y39388D01*
X445445Y39121D01*
X446445Y39388D01*
X447245Y40187D01*
X447645Y41388D01*
Y47121D01*
G01X455645Y46454D02*
X455045Y46854D01*
X454345Y47121D01*
X453545D01*
X452645Y46721D01*
X451945Y46054D01*
X451445Y45254D01*
X451045Y43921D01*
X450945Y42721D01*
X451145Y41521D01*
X451445Y40721D01*
X452045Y39921D01*
X452745Y39388D01*
X453445Y39121D01*
X454145D01*
X454845Y39388D01*
X455445Y39788D01*
X455945Y40321D01*
G01X461445Y47121D02*
Y39121D01*
G01X459145Y47121D02*
X463745D01*
G01X469445Y39121D02*
X468645Y39254D01*
X467945Y39788D01*
X467345Y40588D01*
X466945Y41521D01*
X466745Y42588D01*
Y43654D01*
X466945Y44721D01*
X467345Y45654D01*
X467945Y46454D01*
X468645Y46988D01*
X469445Y47121D01*
X470245Y46988D01*
X470945Y46454D01*
X471545Y45654D01*
X471945Y44721D01*
X472145Y43654D01*
Y42588D01*
X471945Y41521D01*
X471545Y40588D01*
X470945Y39788D01*
X470245Y39254D01*
X469445Y39121D01*
G01X475445D02*
Y47121D01*
X477945D01*
X478745Y46721D01*
X479245Y46188D01*
X479445Y45121D01*
X479245Y44054D01*
X478645Y43388D01*
X477945Y42988D01*
X475445D01*
G01X477945D02*
X479445Y39121D01*
G01X492145Y41788D02*
X494745D01*
G01X509445Y47121D02*
X508645Y46854D01*
X508045Y46188D01*
X507645Y45388D01*
X507345Y44321D01*
X507245Y43121D01*
X507345Y41921D01*
X507645Y40854D01*
X508045Y40054D01*
X508645Y39388D01*
X509445Y39121D01*
X510245Y39388D01*
X510845Y40054D01*
X511245Y40854D01*
X511545Y41921D01*
X511645Y43121D01*
X511545Y44321D01*
X511245Y45388D01*
X510845Y46188D01*
X510245Y46854D01*
X509445Y47121D01*
G01X517445Y38854D02*
X517245Y38988D01*
Y39254D01*
X517445Y39388D01*
X517645Y39254D01*
Y38988D01*
X517445Y38854D01*
G01X525245Y39121D02*
X525445Y40854D01*
X525745Y42321D01*
X526145Y43654D01*
X526645Y45121D01*
X527445Y47121D01*
X523445D01*
G01X533445D02*
X532645Y46854D01*
X532045Y46188D01*
X531645Y45388D01*
X531345Y44321D01*
X531245Y43121D01*
X531345Y41921D01*
X531645Y40854D01*
X532045Y40054D01*
X532645Y39388D01*
X533445Y39121D01*
X534245Y39388D01*
X534845Y40054D01*
X535245Y40854D01*
X535545Y41921D01*
X535645Y43121D01*
X535545Y44321D01*
X535245Y45388D01*
X534845Y46188D01*
X534245Y46854D01*
X533445Y47121D01*
G01X539745Y40054D02*
X540445Y39388D01*
X541245Y39121D01*
X542045Y39388D01*
X542745Y40187D01*
X543245Y41388D01*
X543445Y42588D01*
Y44054D01*
X543245Y45254D01*
X542745Y46321D01*
X542145Y46854D01*
X541445Y47121D01*
X540645Y46854D01*
X540045Y46321D01*
X539645Y45521D01*
X539445Y44454D01*
X539645Y43521D01*
X540145Y42588D01*
X540745Y42054D01*
X541445Y41921D01*
X542245Y42187D01*
X542845Y42854D01*
X543445Y44054D01*
G01X554845Y39121D02*
Y47121D01*
X557445Y40454D01*
X560045Y47121D01*
Y39121D01*
G01X564245Y47121D02*
X566645D01*
G01X565445D02*
Y39121D01*
G01X564245D02*
X566645D01*
G01X571445Y47121D02*
Y39121D01*
X575445D01*
G01X347245Y27636D02*
X351645Y33503D01*
G01X349445Y34570D02*
Y26570D01*
G01X351645Y27636D02*
X347245Y33503D01*
G01X346445Y30570D02*
X352445D01*
G01X371345Y28969D02*
X372145Y28303D01*
X373045Y27903D01*
X373845D01*
X374645Y28303D01*
X375245Y28969D01*
X375545Y29903D01*
X375345Y30836D01*
X374845Y31636D01*
X373945Y32170D01*
X372745Y32436D01*
X372045Y32970D01*
X371745Y33903D01*
X371945Y34836D01*
X372445Y35503D01*
X373145Y35903D01*
X373845D01*
X374545Y35636D01*
X375145Y34970D01*
G01X379245Y35903D02*
Y30170D01*
X379645Y28969D01*
X380445Y28170D01*
X381445Y27903D01*
X382445Y28170D01*
X383245Y28969D01*
X383645Y30170D01*
Y35903D01*
G01X387445Y27903D02*
Y35903D01*
X389945D01*
X390745Y35503D01*
X391245Y34970D01*
X391445Y33903D01*
X391245Y32836D01*
X390645Y32170D01*
X389945Y31770D01*
X387445D01*
G01X389945D02*
X391445Y27903D01*
G01X395545D02*
Y35903D01*
X399345D01*
G01X397945Y32036D02*
X395545D01*
G01X402945Y27903D02*
X405445Y35903D01*
X407945Y27903D01*
G01X407045Y30703D02*
X403845D01*
G01X415645Y35236D02*
X415045Y35636D01*
X414345Y35903D01*
X413545D01*
X412645Y35503D01*
X411945Y34836D01*
X411445Y34036D01*
X411045Y32703D01*
X410945Y31503D01*
X411145Y30303D01*
X411445Y29503D01*
X412045Y28703D01*
X412745Y28170D01*
X413445Y27903D01*
X414145D01*
X414845Y28170D01*
X415445Y28570D01*
X415945Y29103D01*
G01X423445Y27903D02*
X419445D01*
Y35903D01*
X423445D01*
G01X421845Y32036D02*
X419445D01*
G01X436145Y30570D02*
X438745D01*
G01X453445Y35903D02*
X452645Y35636D01*
X452045Y34970D01*
X451645Y34170D01*
X451345Y33103D01*
X451245Y31903D01*
X451345Y30703D01*
X451645Y29636D01*
X452045Y28836D01*
X452645Y28170D01*
X453445Y27903D01*
X454245Y28170D01*
X454845Y28836D01*
X455245Y29636D01*
X455545Y30703D01*
X455645Y31903D01*
X455545Y33103D01*
X455245Y34170D01*
X454845Y34970D01*
X454245Y35636D01*
X453445Y35903D01*
G01X466845Y27903D02*
Y35903D01*
X469445Y29236D01*
X472045Y35903D01*
Y27903D01*
G01X476245Y35903D02*
X478645D01*
G01X477445D02*
Y27903D01*
G01X476245D02*
X478645D01*
G01X483445Y35903D02*
Y27903D01*
X487445D01*
G01X347245Y129142D02*
X351645Y135009D01*
G01X349445Y136076D02*
Y128076D01*
G01X351645Y129142D02*
X347245Y135009D01*
G01X346445Y132076D02*
X352445D01*
G01X371245Y129409D02*
Y137409D01*
X373245D01*
X374045Y137009D01*
X374645Y136476D01*
X375145Y135676D01*
X375545Y134742D01*
X375645Y133409D01*
X375545Y132076D01*
X375145Y131142D01*
X374645Y130342D01*
X374045Y129809D01*
X373245Y129409D01*
X371245D01*
G01X380245Y137409D02*
X382645D01*
G01X381445D02*
Y129409D01*
G01X380245D02*
X382645D01*
G01X391445D02*
X387445D01*
Y137409D01*
X391445D01*
G01X389845Y133542D02*
X387445D01*
G01X395445Y137409D02*
Y129409D01*
X399445D01*
G01X407445D02*
X403445D01*
Y137409D01*
X407445D01*
G01X405845Y133542D02*
X403445D01*
G01X415645Y136742D02*
X415045Y137142D01*
X414345Y137409D01*
X413545D01*
X412645Y137009D01*
X411945Y136342D01*
X411445Y135542D01*
X411045Y134209D01*
X410945Y133009D01*
X411145Y131809D01*
X411445Y131009D01*
X412045Y130209D01*
X412745Y129676D01*
X413445Y129409D01*
X414145D01*
X414845Y129676D01*
X415445Y130076D01*
X415945Y130609D01*
G01X421445Y137409D02*
Y129409D01*
G01X419145Y137409D02*
X423745D01*
G01X427445Y129409D02*
Y137409D01*
X429945D01*
X430745Y137009D01*
X431245Y136476D01*
X431445Y135409D01*
X431245Y134342D01*
X430645Y133676D01*
X429945Y133276D01*
X427445D01*
G01X429945D02*
X431445Y129409D01*
G01X436245Y137409D02*
X438645D01*
G01X437445D02*
Y129409D01*
G01X436245D02*
X438645D01*
G01X447645Y136742D02*
X447045Y137142D01*
X446345Y137409D01*
X445545D01*
X444645Y137009D01*
X443945Y136342D01*
X443445Y135542D01*
X443045Y134209D01*
X442945Y133009D01*
X443145Y131809D01*
X443445Y131009D01*
X444045Y130209D01*
X444745Y129676D01*
X445445Y129409D01*
X446145D01*
X446845Y129676D01*
X447445Y130076D01*
X447945Y130609D01*
G01X460145Y132076D02*
X462745D01*
G01X475245Y130609D02*
X475845Y129942D01*
X476545Y129542D01*
X477445Y129409D01*
X478345Y129676D01*
X479045Y130209D01*
X479545Y131142D01*
X479645Y132209D01*
X479445Y133276D01*
X478945Y133942D01*
X478245Y134476D01*
X477545Y134609D01*
X476845Y134476D01*
X475945Y133942D01*
X476245Y137409D01*
X478945D01*
G01X485245Y129409D02*
X485445Y131142D01*
X485745Y132609D01*
X486145Y133942D01*
X486645Y135409D01*
X487445Y137409D01*
X483445D01*
G01X493445Y129142D02*
X493245Y129276D01*
Y129542D01*
X493445Y129676D01*
X493645Y129542D01*
Y129276D01*
X493445Y129142D01*
G01X499545Y132742D02*
X500245Y133676D01*
X500845Y134209D01*
X501645Y134476D01*
X502345Y134209D01*
X502845Y133676D01*
X503245Y132876D01*
X503345Y131942D01*
X503245Y131142D01*
X502845Y130342D01*
X502245Y129676D01*
X501545Y129409D01*
X500745Y129676D01*
X500045Y130475D01*
X499645Y131676D01*
X499545Y133009D01*
X499745Y134742D01*
X500045Y135676D01*
X500545Y136609D01*
X501245Y137276D01*
X501945Y137409D01*
X502645Y137142D01*
X503145Y136476D01*
G01X507245Y131009D02*
X507845Y130076D01*
X508645Y129542D01*
X509545Y129409D01*
X510345Y129542D01*
X511145Y130209D01*
X511645Y131009D01*
X511745Y131809D01*
X511545Y132742D01*
X510845Y133409D01*
X510145Y133676D01*
X509245D01*
G01X510145D02*
X510745Y134076D01*
X511245Y134742D01*
X511445Y135542D01*
X511245Y136342D01*
X510745Y137009D01*
X509845Y137409D01*
X508945Y137276D01*
X508045Y136742D01*
G01X517245Y129409D02*
X517445Y131142D01*
X517745Y132609D01*
X518145Y133942D01*
X518645Y135409D01*
X519445Y137409D01*
X515445D01*
G01X530845Y129409D02*
Y137409D01*
X533445Y130742D01*
X536045Y137409D01*
Y129409D01*
G01X540245Y137409D02*
X542645D01*
G01X541445D02*
Y129409D01*
G01X540245D02*
X542645D01*
G01X547445Y137409D02*
Y129409D01*
X551445D01*
G01X331445Y227697D02*
Y219697D01*
X335445D01*
G01X341445D02*
Y227697D01*
X340245Y226097D01*
G01Y219697D02*
X342645D01*
G01X357445Y227697D02*
Y219697D01*
G01X355145Y227697D02*
X359745D01*
G01X365445Y219697D02*
X364645Y219830D01*
X363945Y220364D01*
X363345Y221164D01*
X362945Y222097D01*
X362745Y223164D01*
Y224230D01*
X362945Y225297D01*
X363345Y226230D01*
X363945Y227030D01*
X364645Y227564D01*
X365445Y227697D01*
X366245Y227564D01*
X366945Y227030D01*
X367545Y226230D01*
X367945Y225297D01*
X368145Y224230D01*
Y223164D01*
X367945Y222097D01*
X367545Y221164D01*
X366945Y220364D01*
X366245Y219830D01*
X365445Y219697D01*
G01X371445D02*
Y227697D01*
X373845D01*
X374645Y227297D01*
X375245Y226364D01*
X375445Y225297D01*
X375245Y224230D01*
X374745Y223430D01*
X373845Y223030D01*
X371445D01*
G01X391645Y227030D02*
X391045Y227430D01*
X390345Y227697D01*
X389545D01*
X388645Y227297D01*
X387945Y226630D01*
X387445Y225830D01*
X387045Y224497D01*
X386945Y223297D01*
X387145Y222097D01*
X387445Y221297D01*
X388045Y220497D01*
X388745Y219964D01*
X389445Y219697D01*
X390145D01*
X390845Y219964D01*
X391445Y220364D01*
X391945Y220897D01*
G01X397445Y219697D02*
X396645Y219830D01*
X395945Y220364D01*
X395345Y221164D01*
X394945Y222097D01*
X394745Y223164D01*
Y224230D01*
X394945Y225297D01*
X395345Y226230D01*
X395945Y227030D01*
X396645Y227564D01*
X397445Y227697D01*
X398245Y227564D01*
X398945Y227030D01*
X399545Y226230D01*
X399945Y225297D01*
X400145Y224230D01*
Y223164D01*
X399945Y222097D01*
X399545Y221164D01*
X398945Y220364D01*
X398245Y219830D01*
X397445Y219697D01*
G01X403145D02*
Y227697D01*
X407745Y219697D01*
Y227697D01*
G01X411245Y219697D02*
Y227697D01*
X413245D01*
X414045Y227297D01*
X414645Y226764D01*
X415145Y225964D01*
X415545Y225030D01*
X415645Y223697D01*
X415545Y222364D01*
X415145Y221430D01*
X414645Y220630D01*
X414045Y220097D01*
X413245Y219697D01*
X411245D01*
G01X419245Y227697D02*
Y221964D01*
X419645Y220763D01*
X420445Y219964D01*
X421445Y219697D01*
X422445Y219964D01*
X423245Y220763D01*
X423645Y221964D01*
Y227697D01*
G01X431645Y227030D02*
X431045Y227430D01*
X430345Y227697D01*
X429545D01*
X428645Y227297D01*
X427945Y226630D01*
X427445Y225830D01*
X427045Y224497D01*
X426945Y223297D01*
X427145Y222097D01*
X427445Y221297D01*
X428045Y220497D01*
X428745Y219964D01*
X429445Y219697D01*
X430145D01*
X430845Y219964D01*
X431445Y220364D01*
X431945Y220897D01*
G01X437445Y227697D02*
Y219697D01*
G01X435145Y227697D02*
X439745D01*
G01X445445Y219697D02*
X444645Y219830D01*
X443945Y220364D01*
X443345Y221164D01*
X442945Y222097D01*
X442745Y223164D01*
Y224230D01*
X442945Y225297D01*
X443345Y226230D01*
X443945Y227030D01*
X444645Y227564D01*
X445445Y227697D01*
X446245Y227564D01*
X446945Y227030D01*
X447545Y226230D01*
X447945Y225297D01*
X448145Y224230D01*
Y223164D01*
X447945Y222097D01*
X447545Y221164D01*
X446945Y220364D01*
X446245Y219830D01*
X445445Y219697D01*
G01X451445D02*
Y227697D01*
X453945D01*
X454745Y227297D01*
X455245Y226764D01*
X455445Y225697D01*
X455245Y224630D01*
X454645Y223964D01*
X453945Y223564D01*
X451445D01*
G01X453945D02*
X455445Y219697D01*
G01X468145Y222364D02*
X470745D01*
G01X485445Y227697D02*
X484645Y227430D01*
X484045Y226764D01*
X483645Y225964D01*
X483345Y224897D01*
X483245Y223697D01*
X483345Y222497D01*
X483645Y221430D01*
X484045Y220630D01*
X484645Y219964D01*
X485445Y219697D01*
X486245Y219964D01*
X486845Y220630D01*
X487245Y221430D01*
X487545Y222497D01*
X487645Y223697D01*
X487545Y224897D01*
X487245Y225964D01*
X486845Y226764D01*
X486245Y227430D01*
X485445Y227697D01*
G01X493445Y219430D02*
X493245Y219564D01*
Y219830D01*
X493445Y219964D01*
X493645Y219830D01*
Y219564D01*
X493445Y219430D01*
G01X501245Y219697D02*
X501445Y221430D01*
X501745Y222897D01*
X502145Y224230D01*
X502645Y225697D01*
X503445Y227697D01*
X499445D01*
G01X509445D02*
X508645Y227430D01*
X508045Y226764D01*
X507645Y225964D01*
X507345Y224897D01*
X507245Y223697D01*
X507345Y222497D01*
X507645Y221430D01*
X508045Y220630D01*
X508645Y219964D01*
X509445Y219697D01*
X510245Y219964D01*
X510845Y220630D01*
X511245Y221430D01*
X511545Y222497D01*
X511645Y223697D01*
X511545Y224897D01*
X511245Y225964D01*
X510845Y226764D01*
X510245Y227430D01*
X509445Y227697D01*
G01X515745Y220630D02*
X516445Y219964D01*
X517245Y219697D01*
X518045Y219964D01*
X518745Y220763D01*
X519245Y221964D01*
X519445Y223164D01*
Y224630D01*
X519245Y225830D01*
X518745Y226897D01*
X518145Y227430D01*
X517445Y227697D01*
X516645Y227430D01*
X516045Y226897D01*
X515645Y226097D01*
X515445Y225030D01*
X515645Y224097D01*
X516145Y223164D01*
X516745Y222630D01*
X517445Y222497D01*
X518245Y222763D01*
X518845Y223430D01*
X519445Y224630D01*
G01X530845Y219697D02*
Y227697D01*
X533445Y221030D01*
X536045Y227697D01*
Y219697D01*
G01X540245Y227697D02*
X542645D01*
G01X541445D02*
Y219697D01*
G01X540245D02*
X542645D01*
G01X547445Y227697D02*
Y219697D01*
X551445D01*
G01X347245Y229647D02*
X351645Y235514D01*
G01X349445Y236581D02*
Y228581D01*
G01X351645Y229647D02*
X347245Y235514D01*
G01X346445Y232581D02*
X352445D01*
G01X371345Y230980D02*
X372145Y230314D01*
X373045Y229914D01*
X373845D01*
X374645Y230314D01*
X375245Y230980D01*
X375545Y231914D01*
X375345Y232847D01*
X374845Y233647D01*
X373945Y234181D01*
X372745Y234447D01*
X372045Y234981D01*
X371745Y235914D01*
X371945Y236847D01*
X372445Y237514D01*
X373145Y237914D01*
X373845D01*
X374545Y237647D01*
X375145Y236981D01*
G01X379245Y237914D02*
Y232181D01*
X379645Y230980D01*
X380445Y230181D01*
X381445Y229914D01*
X382445Y230181D01*
X383245Y230980D01*
X383645Y232181D01*
Y237914D01*
G01X387445Y229914D02*
Y237914D01*
X389945D01*
X390745Y237514D01*
X391245Y236981D01*
X391445Y235914D01*
X391245Y234847D01*
X390645Y234181D01*
X389945Y233781D01*
X387445D01*
G01X389945D02*
X391445Y229914D01*
G01X395545D02*
Y237914D01*
X399345D01*
G01X397945Y234047D02*
X395545D01*
G01X402945Y229914D02*
X405445Y237914D01*
X407945Y229914D01*
G01X407045Y232714D02*
X403845D01*
G01X415645Y237247D02*
X415045Y237647D01*
X414345Y237914D01*
X413545D01*
X412645Y237514D01*
X411945Y236847D01*
X411445Y236047D01*
X411045Y234714D01*
X410945Y233514D01*
X411145Y232314D01*
X411445Y231514D01*
X412045Y230714D01*
X412745Y230181D01*
X413445Y229914D01*
X414145D01*
X414845Y230181D01*
X415445Y230581D01*
X415945Y231114D01*
G01X423445Y229914D02*
X419445D01*
Y237914D01*
X423445D01*
G01X421845Y234047D02*
X419445D01*
G01X436145Y232581D02*
X438745D01*
G01X453445Y237914D02*
X452645Y237647D01*
X452045Y236981D01*
X451645Y236181D01*
X451345Y235114D01*
X451245Y233914D01*
X451345Y232714D01*
X451645Y231647D01*
X452045Y230847D01*
X452645Y230181D01*
X453445Y229914D01*
X454245Y230181D01*
X454845Y230847D01*
X455245Y231647D01*
X455545Y232714D01*
X455645Y233914D01*
X455545Y235114D01*
X455245Y236181D01*
X454845Y236981D01*
X454245Y237647D01*
X453445Y237914D01*
G01X466845Y229914D02*
Y237914D01*
X469445Y231247D01*
X472045Y237914D01*
Y229914D01*
G01X476245Y237914D02*
X478645D01*
G01X477445D02*
Y229914D01*
G01X476245D02*
X478645D01*
G01X483445Y237914D02*
Y229914D01*
X487445D01*
G01X418550Y-66630D02*
Y-116630D01*
G01X452960Y-110380D02*
Y-97880D01*
X447225Y-106838D01*
X454975D01*
G01X463500Y-97880D02*
X462260Y-98297D01*
X461330Y-99338D01*
X460710Y-100588D01*
X460245Y-102255D01*
X460090Y-104130D01*
X460245Y-106005D01*
X460710Y-107672D01*
X461330Y-108922D01*
X462260Y-109963D01*
X463500Y-110380D01*
X464740Y-109963D01*
X465670Y-108922D01*
X466290Y-107672D01*
X466755Y-106005D01*
X466910Y-104130D01*
X466755Y-102255D01*
X466290Y-100588D01*
X465670Y-99338D01*
X464740Y-98297D01*
X463500Y-97880D01*
G01X444900Y-85380D02*
X443660Y-85172D01*
X442575Y-84339D01*
X441645Y-83088D01*
X441025Y-81630D01*
X440715Y-79963D01*
Y-78297D01*
X441025Y-76630D01*
X441645Y-75172D01*
X442575Y-73922D01*
X443660Y-73088D01*
X444900Y-72880D01*
X446140Y-73088D01*
X447225Y-73922D01*
X448155Y-75172D01*
X448775Y-76630D01*
X449085Y-78297D01*
Y-79963D01*
X448775Y-81630D01*
X448155Y-83088D01*
X447225Y-84339D01*
X446140Y-85172D01*
X444900Y-85380D01*
G01X446140Y-82047D02*
X448000Y-85380D01*
G01X457300Y-72880D02*
Y-85380D01*
G01X453735Y-72880D02*
X460865D01*
G01X469700Y-85380D02*
Y-79755D01*
X466600Y-72880D01*
G01X472800D02*
X469700Y-79755D01*
M02*
